<?xml version="1.0" encoding="utf-8"?>
<!-- Generator: Adobe Illustrator 21.1.0, SVG Export Plug-In . SVG Version: 6.00 Build 0)  -->
<svg version="1.1" id="Layer_1" xmlns="http://www.w3.org/2000/svg" xmlns:xlink="http://www.w3.org/1999/xlink" x="0px" y="0px"
	 viewBox="0 0 179.6 30.5" style="enable-background:new 0 0 179.6 30.5;" xml:space="preserve">
<style type="text/css">
	.st0{clip-path:url(#SVGID_2_);}
	.st1{fill:url(#SVGID_3_);}
	.st2{fill:none;}
	.st3{fill:url(#SVGID_4_);}
	.st4{fill:url(#SVGID_5_);}
	.st5{fill:#F7F7F7;}
</style>
<g>
	<linearGradient id="SVGID_4_" gradientUnits="userSpaceOnUse" x1="31.3333" y1="15.23" x2="-17.3436" y2="15.23">
		<stop  offset="0" style="stop-color:#00C6FB"/>
		<stop  offset="1" style="stop-color:#005BEA"/>
	</linearGradient>
	<path class="st3" d="M16.7,0.7C9.6,0.7,3.8,6.5,3.8,13.6c0,5.7,3.7,10.5,8.8,12.2l3.8,3.8c0.1,0.1,0.2,0.1,0.3,0.1
		c0.1,0,0.2,0,0.3-0.1l3.8-3.8c5.1-1.7,8.8-6.5,8.8-12.2C29.6,6.5,23.8,0.7,16.7,0.7z M20.3,24.6l-0.3,0.1l-0.2,0.2l-3.2,3.2
		l-3.2-3.2l-0.2-0.2L13,24.6c-4.7-1.6-7.9-6-7.9-11C5.1,7.2,10.3,2,16.7,2c6.4,0,11.6,5.2,11.6,11.6C28.3,18.6,25.1,23,20.3,24.6z"
		/>
	<linearGradient id="SVGID_5_" gradientUnits="userSpaceOnUse" x1="31.3333" y1="13.6002" x2="-17.3436" y2="13.6002">
		<stop  offset="0" style="stop-color:#00C6FB"/>
		<stop  offset="1" style="stop-color:#005BEA"/>
	</linearGradient>
	<circle class="st4" cx="16.7" cy="13.6" r="8.5"/>
</g>
<g>
	<path class="st5" d="M19,15.1c0,0.6-0.2,1.1-0.5,1.5c-0.3,0.4-0.8,0.6-1.5,0.7v1.2h-0.7v-1.2c-0.7,0-1.4-0.2-2-0.5v-1.4
		c0.3,0.2,0.6,0.3,1,0.4c0.3,0.1,0.7,0.2,1,0.2v-2l-0.2-0.1c-0.7-0.3-1.1-0.6-1.4-1c-0.3-0.3-0.4-0.8-0.4-1.3c0-0.6,0.2-1,0.5-1.4
		c0.3-0.4,0.8-0.6,1.5-0.6V8.7H17v0.9c0.6,0,1.2,0.2,1.8,0.5l-0.5,1.2C17.8,11.2,17.4,11,17,11v1.8c0.1,0,0.2,0.1,0.2,0.1
		c0.5,0.2,0.9,0.4,1.1,0.6c0.2,0.2,0.4,0.4,0.5,0.7C18.9,14.5,19,14.8,19,15.1z M15.7,11.7c0,0.2,0,0.4,0.1,0.5
		c0.1,0.1,0.2,0.2,0.5,0.3V11C15.9,11,15.7,11.3,15.7,11.7z M17.6,15.2c0-0.2,0-0.3-0.1-0.4c-0.1-0.1-0.2-0.2-0.5-0.4V16
		C17.4,15.9,17.6,15.6,17.6,15.2z"/>
</g>
</svg>
