<svg id="Layer_1" data-name="Layer 1" xmlns="http://www.w3.org/2000/svg" xmlns:xlink="http://www.w3.org/1999/xlink" viewBox="0 0 42 42"><defs><style>.cls-1{fill-rule:evenodd;fill:url(#linear-gradient);}</style><linearGradient id="linear-gradient" x1="1.37" y1="37.95" x2="39.99" y2="6.56" gradientTransform="translate(0.04 -1.02) rotate(0.14)" gradientUnits="userSpaceOnUse"><stop offset="0" stop-color="#04af7a"/><stop offset="1" stop-color="#04cd93"/></linearGradient></defs><title>Available Cash</title><path class="cls-1" d="M31,19.5h0l0,0a2.18,2.18,0,0,1,1.48-.6,2.15,2.15,0,0,1,1.54.65l0,0a2.16,2.16,0,0,1,.6,1.5,2.26,2.26,0,0,1-.63,1.51,2.18,2.18,0,0,1-1.54.63,2.06,2.06,0,0,1-1.5-.64A2.13,2.13,0,0,1,30.4,21,2.05,2.05,0,0,1,31,19.5Zm1.49,5.62h0a4.09,4.09,0,0,0,3-6.92l0-.07a4.2,4.2,0,0,0-2.92-1.19,4,4,0,0,0-2.83,1.14l-.06,0a4.1,4.1,0,0,0,0,5.81A4.13,4.13,0,0,0,32.54,25.12Zm6.25-11.3-12.18,0A2.61,2.61,0,0,0,24,16.34l0,9.31a2.52,2.52,0,0,0,.75,1.81v0a2.72,2.72,0,0,0,1.83.77l12.18,0v4.23A2.45,2.45,0,0,1,38,34.3a2.48,2.48,0,0,1-1.77.75L5.73,35a2.59,2.59,0,0,1-2.54-2.55L3.25,9.48A2.57,2.57,0,0,1,4,7.68,2.52,2.52,0,0,1,5.8,7L36.28,7A2.53,2.53,0,0,1,38.8,9.57Zm0,12.49-12.18,0a.59.59,0,0,1-.46-.17.67.67,0,0,1-.19-.46l0-9.31a.66.66,0,0,1,.65-.63l12.18,0ZM40.39,5.52h0a5.66,5.66,0,0,0-4.06-1.7L5.81,3.73A5.77,5.77,0,0,0,0,9.47L0,32.41a5.79,5.79,0,0,0,1.65,4.05l0,0a5.78,5.78,0,0,0,4.07,1.68l30.48.07A5.69,5.69,0,0,0,42,32.52L42,9.57A5.83,5.83,0,0,0,40.39,5.52Z"/></svg>