<svg id="Layer_1" data-name="Layer 1" xmlns="http://www.w3.org/2000/svg" xmlns:xlink="http://www.w3.org/1999/xlink" width="42" height="42" viewBox="0 0 42 42">
  <defs>
    <style>
      .cls-1 {
        fill-rule: evenodd;
        fill: url(#linear-gradient);
      }
    </style>
    <linearGradient id="linear-gradient" x1="5.76" y1="34.27" x2="35.49" y2="10.11" gradientTransform="translate(0.17 -1.02) rotate(0.14)" gradientUnits="userSpaceOnUse">
      <stop offset="0" stop-color="#04af7a"/>
      <stop offset="1" stop-color="#04cd93"/>
    </linearGradient>
  </defs>
  <title>Available Cash_1</title>
  <path class="cls-1" d="M28.73,19.85h0l0,0a1.68,1.68,0,0,1,1.14-.46,1.65,1.65,0,0,1,1.18.5l0,0A1.66,1.66,0,0,1,31.55,21a1.74,1.74,0,0,1-.48,1.16,1.68,1.68,0,0,1-1.19.49,1.59,1.59,0,0,1-1.16-.49A1.64,1.64,0,0,1,28.23,21,1.58,1.58,0,0,1,28.73,19.85Zm1.15,4.32h0a3.14,3.14,0,0,0,2.28-5.33l0-.05a3.23,3.23,0,0,0-2.25-.92,3.07,3.07,0,0,0-2.18.88l0,0a3.15,3.15,0,0,0,0,4.47A3.18,3.18,0,0,0,29.88,24.17Zm4.81-8.7-9.37,0a2,2,0,0,0-2,2l0,7.17A1.94,1.94,0,0,0,23.88,26v0a2.09,2.09,0,0,0,1.41.59l9.37,0v3.25a1.89,1.89,0,0,1-.58,1.38,1.91,1.91,0,0,1-1.37.58L9.25,31.76a2,2,0,0,1-2-2l0-17.66a2,2,0,0,1,.59-1.38,1.94,1.94,0,0,1,1.38-.56l23.46.06A1.94,1.94,0,0,1,34.7,12.2Zm0,9.62-9.37,0a.46.46,0,0,1-.35-.13.52.52,0,0,1-.14-.35l0-7.17a.51.51,0,0,1,.5-.49l9.37,0Zm1.26-16h0a4.35,4.35,0,0,0-3.12-1.31L9.31,7.71a4.44,4.44,0,0,0-4.45,4.42l0,17.66a4.45,4.45,0,0,0,1.27,3.12l0,0a4.45,4.45,0,0,0,3.13,1.29l23.46.06a4.38,4.38,0,0,0,4.44-4.43l0-17.66A4.48,4.48,0,0,0,35.93,9.08Z"/>
</svg>
