<svg id="Layer_1" data-name="Layer 1" xmlns="http://www.w3.org/2000/svg" xmlns:xlink="http://www.w3.org/1999/xlink" width="42" height="42" viewBox="0 0 42 42">
  <defs>
    <style>
      .cls-1 {
        fill: url(#linear-gradient);
      }

      .cls-2 {
        fill: url(#linear-gradient-2);
      }

      .cls-3 {
        fill: url(#linear-gradient-3);
      }

      .cls-4 {
        fill: url(#linear-gradient-4);
      }
    </style>
    <linearGradient id="linear-gradient" x1="18.23" y1="15.16" x2="23.12" y2="15.16" gradientUnits="userSpaceOnUse">
      <stop offset="0" stop-color="#497df2"/>
      <stop offset="1" stop-color="#6890fb"/>
    </linearGradient>
    <linearGradient id="linear-gradient-2" x1="9.77" y1="15.16" x2="14.66" y2="15.16" xlink:href="#linear-gradient"/>
    <linearGradient id="linear-gradient-3" x1="14" y1="10.76" x2="18.89" y2="10.76" xlink:href="#linear-gradient"/>
    <linearGradient id="linear-gradient-4" x1="4.84" y1="25.96" x2="38.76" y2="25.96" xlink:href="#linear-gradient"/>
  </defs>
  <title>Total Income_1</title>
  <g>
    <g>
      <g>
        <path class="cls-1" d="M21.68,13.72a1.44,1.44,0,1,1,0,2.88h-2a1.44,1.44,0,1,1,0-2.88Z"/>
        <path class="cls-2" d="M13.22,13.72a1.44,1.44,0,0,1,0,2.88h-2a1.44,1.44,0,0,1,0-2.88Z"/>
      </g>
      <path class="cls-3" d="M17.45,9.33a1.44,1.44,0,1,1,0,2.88h-2a1.44,1.44,0,0,1,0-2.88Z"/>
    </g>
    <path class="cls-4" d="M5.2,22.81a2.83,2.83,0,0,0,1.51,4c15.34,5.82,15.55,5.82,15.72,5.82s.34,0,13.34-2.46c2.36-.37,3.19-3.61,3-6.66-.16-2.08-.88-4.31-2.42-4.31H24.61a2.82,2.82,0,0,0-2.78,3.29,2.91,2.91,0,0,0,2.9,2.36h1.51l-3.87,1.56L8.73,21.57a3,3,0,0,0-1-.18A2.83,2.83,0,0,0,5.2,22.81Z"/>
  </g>
</svg>
