<?xml version="1.0" encoding="utf-8"?>
<!-- Generator: Adobe Illustrator 21.1.0, SVG Export Plug-In . SVG Version: 6.00 Build 0)  -->
<svg version="1.1" id="Layer_1" xmlns="http://www.w3.org/2000/svg" xmlns:xlink="http://www.w3.org/1999/xlink" x="0px" y="0px"
	 viewBox="0 0 179.6 30.5" style="enable-background:new 0 0 179.6 30.5;" xml:space="preserve">
<style type="text/css">
	.st0{clip-path:url(#SVGID_2_);}
	.st1{fill:url(#SVGID_3_);}
	.st2{fill:none;}
	.st3{fill:url(#SVGID_4_);}
	.st4{fill:url(#SVGID_5_);}
	.st5{fill:#F7F7F7;}
</style>
<g>
	<defs>
		<path id="SVGID_1_" d="M41.8,16h-3.9v3.3h4.6v1.8h-6.9V9.5h6.9v1.8h-4.6v2.9h3.9L41.8,16z M48,13.5L48,13.5l1.6-4.1h2.6l-2.8,5.8
			l3,5.9h-2.7L48.1,17l0,0l-1.6,4.1h-2.7l2.9-5.9l-2.8-5.8h2.6L48,13.5z M56.6,16.9v4.2h-2.3V9.5h4c1.9-0.1,3.6,1.3,3.8,3.2
			c0,0.2,0,0.3,0,0.5c0.1,1.9-1.3,3.6-3.3,3.7c-0.2,0-0.3,0-0.5,0L56.6,16.9z M56.6,15.1h1.8c0.4,0,0.9-0.2,1.1-0.5
			c0.3-0.4,0.4-0.9,0.4-1.4c0-0.5-0.1-1-0.4-1.4c-0.2-0.4-0.7-0.6-1.1-0.6h-1.8V15.1z M70.6,16h-3.9v3.3h4.6v1.8h-6.9V9.5h6.9v1.8
			h-4.6v2.9h3.9L70.6,16z M81.4,21.1h-2.3l-3.6-7.4l0,0v7.4h-2.3V9.5h2.3l3.6,7.4l0,0V9.5h2.3L81.4,21.1z M89.2,18.1
			c0-0.4-0.1-0.8-0.4-1.1c-0.4-0.3-0.8-0.6-1.2-0.8c-1-0.3-1.9-0.8-2.7-1.4c-0.6-0.6-1-1.4-0.9-2.2c0-0.9,0.4-1.8,1.1-2.3
			c0.8-0.6,1.7-0.9,2.7-0.9c1,0,2,0.3,2.7,1c0.7,0.7,1,1.6,1,2.5l0,0h-2.2c0-0.5-0.1-0.9-0.4-1.3c-0.6-0.6-1.6-0.7-2.2-0.1
			c-0.2,0.3-0.4,0.6-0.4,1c0,0.4,0.1,0.7,0.4,0.9c0.4,0.3,0.9,0.6,1.5,0.8c0.9,0.3,1.8,0.8,2.5,1.4c0.6,0.6,0.9,1.5,0.8,2.3
			c0,0.9-0.3,1.8-1,2.4c-0.8,0.6-1.7,0.9-2.7,0.9c-1,0-2.1-0.3-2.9-1c-0.8-0.7-1.3-1.7-1.2-2.8l0,0h2.2C85.8,18,86,18.6,86.3,19
			c0.4,0.3,0.9,0.5,1.4,0.5c0.4,0,0.8-0.1,1.1-0.4C89,18.8,89.1,18.4,89.2,18.1L89.2,18.1z M99.8,16h-3.9v3.3h4.6v1.8h-6.9V9.5h6.9
			v1.8h-4.6v2.9h3.9L99.8,16z M113.8,11.3h-2.6v9.8h-2.3v-9.8h-2.6V9.5h7.5V11.3z M118,16.5v4.6h-2.3V9.5h3.8c1-0.1,2,0.3,2.7,0.9
			c0.7,0.7,1,1.6,1,2.5c0,0.6-0.1,1.1-0.4,1.6c-0.3,0.5-0.7,0.8-1.2,1.1c0.5,0.2,1,0.5,1.3,1c0.3,0.5,0.4,1.1,0.4,1.8v0.8
			c0,0.3,0,0.7,0.1,1c0,0.3,0.2,0.6,0.4,0.8v0.2h-2.3c-0.2-0.2-0.3-0.5-0.3-0.8c0-0.4-0.1-0.8-0.1-1.2v-0.8c0-0.5-0.1-1-0.4-1.4
			c-0.2-0.3-0.6-0.5-1-0.5L118,16.5z M118,14.7h1.5c0.4,0,0.8-0.1,1.1-0.4c0.3-0.4,0.4-0.8,0.3-1.3c0-0.5-0.1-0.9-0.4-1.3
			c-0.2-0.3-0.6-0.5-1-0.5H118V14.7z M131.1,18.7H128l-0.6,2.5H125l3.3-11.6h2.4l3.3,11.6h-2.3L131.1,18.7z M128.5,16.9h2.1l-1-4.1
			l0,0L128.5,16.9z M142.9,17.4L142.9,17.4c0.1,1-0.2,2.1-0.9,2.9c-0.7,0.7-1.7,1.1-2.7,1c-1.1,0-2.1-0.4-2.9-1.1
			c-0.8-0.9-1.2-2-1.1-3.2v-3.4c-0.1-1.1,0.3-2.3,1-3.1c0.7-0.8,1.7-1.2,2.8-1.1c1-0.1,2,0.3,2.8,1c0.7,0.8,1.1,1.9,1,2.9l0,0h-2.2
			c0.1-0.6,0-1.1-0.3-1.6c-0.3-0.4-0.8-0.6-1.2-0.5c-0.5,0-0.9,0.2-1.2,0.6c-0.3,0.6-0.5,1.2-0.4,1.8V17c0,0.6,0.1,1.3,0.4,1.8
			c0.3,0.4,0.8,0.6,1.3,0.6c0.4,0.1,0.8-0.1,1.1-0.4c0.3-0.5,0.4-1.1,0.3-1.6L142.9,17.4z M148.4,16.3h-1v4.8h-2.3V9.5h2.3v4.7h0.7
			l2.3-4.7h2.8l-3.2,5.3l3.4,6.3h-2.8L148.4,16.3z M161.2,16h-3.9v3.3h4.6v1.8H155V9.5h6.9v1.8h-4.6v2.9h3.9L161.2,16z M166.2,16.5
			v4.6h-2.3V9.5h3.8c1-0.1,2,0.3,2.7,0.9c0.7,0.7,1,1.6,1,2.5c0,0.6-0.1,1.1-0.4,1.6c-0.3,0.5-0.7,0.8-1.2,1.1c0.5,0.2,1,0.5,1.3,1
			c0.3,0.5,0.4,1.1,0.4,1.8v0.8c0,0.3,0,0.7,0.1,1c0,0.3,0.2,0.6,0.4,0.8v0.2h-2.4c-0.2-0.2-0.3-0.5-0.4-0.8c0-0.4-0.1-0.8-0.1-1.2
			v-0.8c0-0.5-0.1-1-0.4-1.4c-0.2-0.3-0.6-0.5-1-0.5L166.2,16.5z M166.2,14.7h1.5c0.4,0,0.8-0.1,1.1-0.4c0.3-0.3,0.4-0.8,0.4-1.2
			c0-0.5-0.1-0.9-0.4-1.3c-0.2-0.3-0.6-0.5-1-0.5h-1.5L166.2,14.7z"/>
	</defs>
	<clipPath id="SVGID_2_">
		<use xlink:href="#SVGID_1_"  style="overflow:visible;"/>
	</clipPath>
	<g class="st0">
		
			<linearGradient id="SVGID_3_" gradientUnits="userSpaceOnUse" x1="191.97" y1="16.77" x2="-12.39" y2="16.77" gradientTransform="matrix(1 0 0 -1 0 32)">
			<stop  offset="0" style="stop-color:#00C6FB"/>
			<stop  offset="0.2" style="stop-color:#00C2FA"/>
			<stop  offset="0.39" style="stop-color:#00B7F9"/>
			<stop  offset="0.58" style="stop-color:#00A3F5"/>
			<stop  offset="0.77" style="stop-color:#0088F1"/>
			<stop  offset="0.95" style="stop-color:#0065EC"/>
			<stop  offset="1" style="stop-color:#005BEA"/>
		</linearGradient>
		<rect x="-12.4" y="-7" class="st1" width="204.4" height="44.5"/>
	</g>
</g>
<g>
	<linearGradient id="SVGID_4_" gradientUnits="userSpaceOnUse" x1="31.3333" y1="15.23" x2="-17.3436" y2="15.23">
		<stop  offset="0" style="stop-color:#00C6FB"/>
		<stop  offset="1" style="stop-color:#005BEA"/>
	</linearGradient>
	<path class="st3" d="M16.7,0.7C9.6,0.7,3.8,6.5,3.8,13.6c0,5.7,3.7,10.5,8.8,12.2l3.8,3.8c0.1,0.1,0.2,0.1,0.3,0.1
		c0.1,0,0.2,0,0.3-0.1l3.8-3.8c5.1-1.7,8.8-6.5,8.8-12.2C29.6,6.5,23.8,0.7,16.7,0.7z M20.3,24.6l-0.3,0.1l-0.2,0.2l-3.2,3.2
		l-3.2-3.2l-0.2-0.2L13,24.6c-4.7-1.6-7.9-6-7.9-11C5.1,7.2,10.3,2,16.7,2c6.4,0,11.6,5.2,11.6,11.6C28.3,18.6,25.1,23,20.3,24.6z"
		/>
	<linearGradient id="SVGID_5_" gradientUnits="userSpaceOnUse" x1="31.3333" y1="13.6002" x2="-17.3436" y2="13.6002">
		<stop  offset="0" style="stop-color:#00C6FB"/>
		<stop  offset="1" style="stop-color:#005BEA"/>
	</linearGradient>
	<circle class="st4" cx="16.7" cy="13.6" r="8.5"/>
</g>
<g>
	<path class="st5" d="M19,15.1c0,0.6-0.2,1.1-0.5,1.5c-0.3,0.4-0.8,0.6-1.5,0.7v1.2h-0.7v-1.2c-0.7,0-1.4-0.2-2-0.5v-1.4
		c0.3,0.2,0.6,0.3,1,0.4c0.3,0.1,0.7,0.2,1,0.2v-2l-0.2-0.1c-0.7-0.3-1.1-0.6-1.4-1c-0.3-0.3-0.4-0.8-0.4-1.3c0-0.6,0.2-1,0.5-1.4
		c0.3-0.4,0.8-0.6,1.5-0.6V8.7H17v0.9c0.6,0,1.2,0.2,1.8,0.5l-0.5,1.2C17.8,11.2,17.4,11,17,11v1.8c0.1,0,0.2,0.1,0.2,0.1
		c0.5,0.2,0.9,0.4,1.1,0.6c0.2,0.2,0.4,0.4,0.5,0.7C18.9,14.5,19,14.8,19,15.1z M15.7,11.7c0,0.2,0,0.4,0.1,0.5
		c0.1,0.1,0.2,0.2,0.5,0.3V11C15.9,11,15.7,11.3,15.7,11.7z M17.6,15.2c0-0.2,0-0.3-0.1-0.4c-0.1-0.1-0.2-0.2-0.5-0.4V16
		C17.4,15.9,17.6,15.6,17.6,15.2z"/>
</g>
</svg>
