<svg id="Layer_1" data-name="Layer 1" xmlns="http://www.w3.org/2000/svg" xmlns:xlink="http://www.w3.org/1999/xlink" viewBox="0 0 42 42"><defs><style>.cls-1{fill-rule:evenodd;fill:url(#linear-gradient);}</style><linearGradient id="linear-gradient" y1="21.69" x2="42" y2="21.69" gradientTransform="translate(0.04 -0.77) rotate(0.14)" gradientUnits="userSpaceOnUse"><stop offset="0" stop-color="#f14d52"/><stop offset="1" stop-color="#d64954"/></linearGradient></defs><title>Total Expenses</title><path class="cls-1" d="M22.49,32.9h0a1,1,0,0,0-1,1v1.79a1,1,0,0,0,1,1,1,1,0,0,0,1-1V33.89A1,1,0,0,0,22.49,32.9Zm2.7,0h0a1,1,0,0,0-1,1v1.79a1,1,0,0,0,1,1,1,1,0,0,0,1-1V33.9A1,1,0,0,0,25.19,32.91Zm2.71,0h0a1,1,0,0,0-1,1v1.79a1,1,0,0,0,1,1,1,1,0,0,0,1-1V33.9A1,1,0,0,0,27.91,32.92Zm10.83,4.31h0a.39.39,0,0,1-.06.19l-27.45-.07a.41.41,0,0,1,0-.19l0-19.06V18h0l27.45.07a.44.44,0,0,1,.06.19ZM8,18.19l0,8.44L3.27,18.42s0-.13,0-.19h0l0,0L27,4.57a.28.28,0,0,1,.15.15l0,0L33,14.83l-21.7-.05A3.38,3.38,0,0,0,8,18.19ZM41.1,15.91h0a3.15,3.15,0,0,0-2.35-1.06H36.68L30,3.24a1.13,1.13,0,0,0-.19-.32A3.5,3.5,0,0,0,28,1.51a3.13,3.13,0,0,0-2.41.18,1,1,0,0,0-.28.14L1.67,15.41l-.07,0A3.17,3.17,0,0,0,.07,17.55v0A3.49,3.49,0,0,0,.48,20l7.46,13v4.08a3.56,3.56,0,0,0,.91,2.36,3.13,3.13,0,0,0,2.36,1.06l27.49.07A3.11,3.11,0,0,0,41,39.59,3.49,3.49,0,0,0,42,37.24l0-19A3.53,3.53,0,0,0,41.1,15.91Zm-4,17h0a1,1,0,0,0-1,1v1.79a1,1,0,1,0,1.93,0V33.93A1,1,0,0,0,37.08,32.94Zm-2.71,0h0a1,1,0,0,0-1,1V35.7a1,1,0,0,0,1.94,0V33.92A1,1,0,0,0,34.37,32.93Zm-2.7,0h0a1,1,0,0,0-1,1v1.79a1,1,0,0,0,1.93,0V33.91A1,1,0,0,0,31.66,32.92ZM16,32.89h0a1,1,0,0,0-1,1v1.79a1,1,0,1,0,1.93,0V33.88A1,1,0,0,0,16,32.89Zm2.7,0h0a1,1,0,0,0-1,1v1.79a1,1,0,0,0,1.95,0V33.88A1,1,0,0,0,18.71,32.89Zm-4.39-3.78h4.27V24.86H14.33Zm5.28-6.19-6.21,0a1,1,0,0,0-1,1l0,6.2a1,1,0,0,0,1,1l6.21,0a1,1,0,0,0,1-1l0-6.2A1,1,0,0,0,19.59,22.92Zm-6.27,10a1,1,0,0,0-1,1v1.79a1,1,0,0,0,1,1,1,1,0,0,0,1-1V33.87A1,1,0,0,0,13.32,32.88Z"/></svg>