<svg id="Layer_1" data-name="Layer 1" xmlns="http://www.w3.org/2000/svg" xmlns:xlink="http://www.w3.org/1999/xlink" viewBox="0 0 42 42"><defs><style>.cls-1{fill-rule:evenodd;fill:url(#linear-gradient);}</style><linearGradient id="linear-gradient" x1="1.01" y1="21.61" x2="41.01" y2="21.61" gradientTransform="translate(0.04 -0.66) rotate(0.14)" gradientUnits="userSpaceOnUse"><stop offset="0" stop-color="#666"/><stop offset="1" stop-color="#515151"/></linearGradient></defs><title>Overall Transactions</title><path class="cls-1" d="M21,37.94h0A16.92,16.92,0,1,1,37.94,21,17,17,0,0,1,21,37.94ZM21,1h0A20,20,0,1,0,41,21.05,20,20,0,0,0,21,1ZM17.23,19.46h0l-3-3,8.86,0a1.54,1.54,0,0,0,0-3.08l-8.87,0,3-3a1.53,1.53,0,1,0-2.14-2.19L9.52,13.75v0l-.06.07-.07.06,0,0L9.3,14l0,0a.72.72,0,0,0-.1.18l-.06.12,0,0L9,14.49v0l0,.13v.13l0,.11v.06L9,15v.16l0,.11v0l.06.12,0,.07.06.11a.42.42,0,0,0,.1.17l0,.06.06,0,0,0,.07.07L15,21.65a1.55,1.55,0,1,0,2.2-2.19ZM33,27v-.15l0-.15v0a1.36,1.36,0,0,0-.08-.19l-.06-.11a.57.57,0,0,0-.1-.18l0,0,0-.06-.1-.09-.06-.06,0,0-5.53-5.56a1.54,1.54,0,0,0-2.17,2.18l3,3-8.86,0a1.54,1.54,0,0,0,0,3.08l8.86,0-3,3a1.55,1.55,0,0,0,2.19,2.19l5.62-5.62.07-.07,0,0,0,0,0-.06a.72.72,0,0,0,.1-.18l0-.07,0,0a1,1,0,0,0,.08-.19v0l0-.13v-.13l0-.1V27Z"/></svg>