<svg width="46" height="46" viewBox="0 0 46 46" fill="none" xmlns="http://www.w3.org/2000/svg">
<path d="M36.3333 3H9.66669C5.98478 3 3 5.98478 3 9.66669V36.3333C3 40.0152 5.98478 43 9.66669 43H36.3333C40.0152 43 43 40.0152 43 36.3333V9.66669C43 5.98478 40.0152 3 36.3333 3Z" fill="url(#paint0_linear_2542_433)" fill-opacity="0.2"/>
<rect x="1" y="1" width="44" height="44" rx="6.6" fill="url(#paint1_linear_2542_433)"/>
<rect x="0.5" y="0.5" width="45" height="45" rx="7.1" stroke="white" stroke-opacity="0.4"/>
<path fill-rule="evenodd" clip-rule="evenodd" d="M18.1975 11.035L28.9139 11.035C29.3912 11.035 29.7781 11.4219 29.7781 11.8992L29.7781 17.9488C29.7781 18.4261 29.3912 18.8131 28.9139 18.8131L18.1975 18.8131C17.7202 18.8131 17.3332 18.4261 17.3332 17.9488L17.3332 11.8992C17.3332 11.4219 17.7202 11.035 18.1975 11.035Z" stroke="#133B84" stroke-width="1.5"/>
<path fill-rule="evenodd" clip-rule="evenodd" d="M8.32638 29.7796L19.0428 29.7796C19.5201 29.7796 19.9071 30.1666 19.9071 30.6439L19.9071 34.1008C19.9071 34.5781 19.5201 34.965 19.0428 34.965L8.32638 34.965C7.84908 34.965 7.46215 34.5781 7.46215 34.1008L7.46215 30.6439C7.46215 30.1666 7.84908 29.7796 8.32638 29.7796Z" stroke="#133B84" stroke-width="1.5"/>
<path fill-rule="evenodd" clip-rule="evenodd" d="M27.9572 29.7796L38.6737 29.7796C39.151 29.7796 39.5379 30.1666 39.5379 30.6439L39.5379 34.1008C39.5379 34.5781 39.151 34.965 38.6737 34.965L27.9572 34.965C27.4799 34.965 27.093 34.5781 27.093 34.1008L27.093 30.6439C27.093 30.1666 27.4799 29.7796 27.9572 29.7796Z" stroke="#133B84" stroke-width="1.5"/>
<path d="M23.624 18.7839V24.1727" stroke="#133B84" stroke-width="1.5"/>
<path d="M33.3947 30.358V25.9011C33.3947 24.9465 32.6209 24.1726 31.6663 24.1726H15.3349C14.3803 24.1726 13.6064 24.9465 13.6064 25.9011V30.358" stroke="#133B84" stroke-width="1.5"/>
<path d="M36.3333 3H9.66669C5.98478 3 3 5.98478 3 9.66669V36.3333C3 40.0152 5.98478 43 9.66669 43H36.3333C40.0152 43 43 40.0152 43 36.3333V9.66669C43 5.98478 40.0152 3 36.3333 3Z" fill="url(#paint2_linear_2542_433)" fill-opacity="0.2"/>
<rect x="1" y="1" width="44" height="44" rx="6.6" fill="url(#paint3_linear_2542_433)"/>
<rect x="0.5" y="0.5" width="45" height="45" rx="7.1" stroke="white" stroke-opacity="0.4"/>
<path d="M16.3271 10.7821H13.5119C11.9321 10.7821 10.6514 12.0628 10.6514 13.6427V34.694C10.6514 36.2738 11.9321 37.5545 13.5119 37.5545H20.6515M28.0951 10.7821H30.3983C31.9781 10.7821 33.2589 12.0628 33.2589 13.6427V21.4697M17.0002 8.83708H18.7653C19.1243 8.83708 19.4681 8.69131 19.7255 8.44114C21.7175 6.50559 22.3804 6.5507 24.0901 8.38998C24.3513 8.67105 24.7156 8.83708 25.0993 8.83708H27.422C27.7937 8.83708 28.0951 9.13845 28.0951 9.51021V11.9029C28.0951 12.2746 27.7937 12.576 27.422 12.576H17.0002C16.6284 12.576 16.3271 12.2746 16.3271 11.9029V9.51021C16.3271 9.13845 16.6284 8.83708 17.0002 8.83708Z" stroke="#133B84" stroke-width="1.5" stroke-linecap="round"/>
<path d="M30.906 39C34.4607 39 37.3423 36.1184 37.3423 32.5637C37.3423 29.0091 34.4607 26.1274 30.906 26.1274C27.3513 26.1274 24.4697 29.0091 24.4697 32.5637C24.4697 36.1184 27.3513 39 30.906 39Z" stroke="#133B84" stroke-width="1.5" stroke-linecap="round" stroke-linejoin="round"/>
<path d="M32.5643 30.1792H30.5057C29.8235 30.1792 29.2705 30.7322 29.2705 31.4143C29.2705 32.0965 29.8235 32.6495 30.5057 32.6495H31.3291C32.0113 32.6495 32.5643 33.2025 32.5643 33.8846C32.5643 34.5668 32.0113 35.1198 31.3291 35.1198H29.2705M30.9174 29.3557V30.1792M30.9174 35.1198V35.9432" stroke="#133B84" stroke-width="1.5" stroke-linecap="round" stroke-linejoin="round"/>
<rect x="14.3486" y="17.0249" width="2.86057" height="2.86057" rx="0.715143" stroke="#133B84" stroke-width="1.5"/>
<path d="M20.0693 18.4551H29.3662" stroke="#133B84" stroke-width="1.5" stroke-linecap="round"/>
<rect x="14.3486" y="23.2217" width="2.86057" height="2.86057" rx="0.715143" stroke="#133B84" stroke-width="1.5"/>
<path d="M20.0693 24.6519H25.0735" stroke="#133B84" stroke-width="1.5" stroke-linecap="round"/>
<defs>
<linearGradient id="paint0_linear_2542_433" x1="43" y1="6.32943" x2="3" y2="39.6706" gradientUnits="userSpaceOnUse">
<stop stop-color="#2F77FB"/>
<stop offset="1" stop-color="#A6C5FF"/>
</linearGradient>
<linearGradient id="paint1_linear_2542_433" x1="6.37769" y1="1" x2="39.6223" y2="45" gradientUnits="userSpaceOnUse">
<stop stop-color="#ECF3FF"/>
<stop offset="1" stop-color="#76A7FF"/>
</linearGradient>
<linearGradient id="paint2_linear_2542_433" x1="43" y1="6.32943" x2="3" y2="39.6706" gradientUnits="userSpaceOnUse">
<stop stop-color="#2F77FB"/>
<stop offset="1" stop-color="#A6C5FF"/>
</linearGradient>
<linearGradient id="paint3_linear_2542_433" x1="6.37769" y1="1" x2="39.6223" y2="45" gradientUnits="userSpaceOnUse">
<stop stop-color="#ECF3FF"/>
<stop offset="1" stop-color="#76A7FF"/>
</linearGradient>
</defs>
</svg>
