<svg id="Layer_1" data-name="Layer 1" xmlns="http://www.w3.org/2000/svg" width="24" height="24" viewBox="0 0 24 24">
  <defs>
    <style>
      .cls-1 {
        fill: #494949;
        fill-rule: evenodd;
      }
    </style>
  </defs>
  <title>01 Home</title>
  <path class="cls-1" d="M21.92,7.56a2.33,2.33,0,0,0-2.24-1.73,2.46,2.46,0,0,0-.61.08A2.35,2.35,0,0,0,17.66,7a2.27,2.27,0,0,0-.24,1.73L15.8,10.34a4.5,4.5,0,0,1-2.25,1.11h0a3.59,3.59,0,0,1-1-1.89,2.55,2.55,0,0,0-.06-.29,2.34,2.34,0,0,0-2.26-1.72A2.32,2.32,0,0,0,8,10.46l-2,2a4.38,4.38,0,0,1-2.22,1.12l-.09,0a2.33,2.33,0,0,0-1.42,1.08,2.38,2.38,0,0,0-.24,1.76,2.23,2.23,0,0,0,1,1.37l.06.05h0a2.4,2.4,0,0,0,1.16.3,2.28,2.28,0,0,0,.55-.07h.06A2.44,2.44,0,0,0,6.35,17a2.37,2.37,0,0,0,.23-1.73l2-2a3.63,3.63,0,0,1,2-1.07l.25-.05a4.51,4.51,0,0,1,1,2.1l0,.08a2.29,2.29,0,0,0,1.09,1.41,2.33,2.33,0,0,0,1.75.24l.09,0h0a2.28,2.28,0,0,0,1.33-1.06,2.25,2.25,0,0,0,.25-1.74L18,11.53a4.32,4.32,0,0,1,2.21-1.1l.07,0a2.35,2.35,0,0,0,1.41-1.08l0-.09A2.25,2.25,0,0,0,21.92,7.56ZM5.16,16.32h0a.93.93,0,0,1-.58.45h0a1,1,0,0,1-.71-.1h0a1,1,0,0,1-.42-.58.9.9,0,0,1,.09-.72,1,1,0,0,1,.59-.45h0a1,1,0,0,1,.71.08,1.06,1.06,0,0,1,.45.59A1,1,0,0,1,5.16,16.32Zm5.94-5.93a1,1,0,0,1-1.31.35,1,1,0,0,1-.45-.59,1,1,0,0,1,.1-.73h0A1,1,0,0,1,10,9a.93.93,0,0,1,.72.1.89.89,0,0,1,.45.59A1,1,0,0,1,11.1,10.38Zm3.83,3.83a.88.88,0,0,1-.58.44h0a1.06,1.06,0,0,1-.69-.07l-.06,0a1,1,0,0,1-.42-.58.94.94,0,0,1,.08-.69l0,0a.89.89,0,0,1,.57-.43h0a1,1,0,0,1,.72.1l0,0a1,1,0,0,1,.42.57A1,1,0,0,1,14.94,14.21Zm5.59-5.59,0,.06a1,1,0,0,1-.58.42A1,1,0,0,1,19.23,9l-.06,0a1.05,1.05,0,0,1-.42-.57h0a.92.92,0,0,1,.08-.69l0-.06a1,1,0,0,1,.57-.42.9.9,0,0,1,.69.08l.06,0a1,1,0,0,1,.44.58A1,1,0,0,1,20.52,8.61Z"/>
</svg>
