<svg id="Layer_1" data-name="Layer 1" xmlns="http://www.w3.org/2000/svg" width="38" height="38" viewBox="0 0 38 38">
  <title>Wallet</title>
  <g>
    <path d="M5.34,33.24h24.2a3.13,3.13,0,0,0,3.12-3.12V26.57A2.73,2.73,0,0,0,35,23.88V19.2a2.73,2.73,0,0,0-2.34-2.69V13a3.13,3.13,0,0,0-3.12-3.12H26.3l-.66-4.41a.76.76,0,0,0-.35-.55.72.72,0,0,0-.62-.08L6.9,9.83H5.34A2.35,2.35,0,0,0,3,12.17V30.9A2.35,2.35,0,0,0,5.34,33.24Zm28.1-14v4.68A1.15,1.15,0,0,1,32.27,25H26.41a2.35,2.35,0,0,1-2.34-2.34V20.37A2.35,2.35,0,0,1,26.41,18h5.85A1.15,1.15,0,0,1,33.44,19.2ZM24.23,6.51l.51,3.32H12.6ZM4.56,12.17a.78.78,0,0,1,.78-.78h24.2A1.57,1.57,0,0,1,31.1,13v3.51H26.41a3.91,3.91,0,0,0-3.9,3.9v2.34a3.91,3.91,0,0,0,3.9,3.9H31.1v3.51a1.57,1.57,0,0,1-1.56,1.56H5.34a.78.78,0,0,1-.78-.78Z"/>
    <path d="M27.59,19.2a2.34,2.34,0,1,0,2.34,2.34A2.35,2.35,0,0,0,27.59,19.2Zm0,3.12a.78.78,0,1,1,.78-.78A.78.78,0,0,1,27.59,22.32Z"/>
  </g>
</svg>
