<svg id="Layer_1" data-name="Layer 1" xmlns="http://www.w3.org/2000/svg" xmlns:xlink="http://www.w3.org/1999/xlink" width="42" height="42" viewBox="0 0 42 42">
  <defs>
    <style>
      .cls-1 {
        fill: url(#linear-gradient);
      }

      .cls-2 {
        fill: url(#linear-gradient-2);
      }

      .cls-3 {
        fill: url(#linear-gradient-3);
      }

      .cls-4 {
        fill: url(#linear-gradient-4);
      }
    </style>
    <linearGradient id="linear-gradient" x1="14.44" y1="26.57" x2="37.99" y2="7.42" gradientUnits="userSpaceOnUse">
      <stop offset="0" stop-color="#f14d52"/>
      <stop offset="1" stop-color="#d64954"/>
    </linearGradient>
    <linearGradient id="linear-gradient-2" x1="29.6" y1="21.49" x2="34.5" y2="17.51" xlink:href="#linear-gradient"/>
    <linearGradient id="linear-gradient-3" x1="4.59" y1="32.6" x2="18.08" y2="21.69" xlink:href="#linear-gradient"/>
    <linearGradient id="linear-gradient-4" x1="7.84" y1="27.15" x2="14.84" y2="27.15" xlink:href="#linear-gradient"/>
  </defs>
  <title>Total Expenses_1</title>
  <g>
    <g>
      <path class="cls-1" d="M38.08,7.56h0a4.35,4.35,0,0,0-3.12-1.31L11.46,6.18A4.44,4.44,0,0,0,7,10.6L7,17.4a10.58,10.58,0,0,1,2.48-.76v-6a2,2,0,0,1,.59-1.38,1.94,1.94,0,0,1,1.38-.56l23.46.06a1.94,1.94,0,0,1,1.94,1.95v3.27l-9.37,0a2,2,0,0,0-2,2l0,7.17A1.94,1.94,0,0,0,26,24.44v0a2.09,2.09,0,0,0,1.41.59l9.37,0v3.25a1.89,1.89,0,0,1-.58,1.38,1.91,1.91,0,0,1-1.37.58l-13.32,0a10.6,10.6,0,0,1-1.13,2.47l14.44,0a4.38,4.38,0,0,0,4.44-4.43l0-17.66A4.48,4.48,0,0,0,38.08,7.56Zm-1.26,16-9.37,0a.46.46,0,0,1-.35-.13.52.52,0,0,1-.14-.35l0-7.17a.51.51,0,0,1,.5-.49l9.37,0Z"/>
      <path class="cls-2" d="M32,22.64a3.14,3.14,0,0,0,2.28-5.33l0-.05A3.23,3.23,0,0,0,32,16.34a3.07,3.07,0,0,0-2.18.88l0,0a3.15,3.15,0,0,0,0,4.47A3.18,3.18,0,0,0,32,22.64Zm-1.15-4.32,0,0A1.68,1.68,0,0,1,32,17.83a1.65,1.65,0,0,1,1.18.5l0,0a1.66,1.66,0,0,1,.46,1.16,1.74,1.74,0,0,1-.48,1.16,1.68,1.68,0,0,1-1.19.49,1.59,1.59,0,0,1-1.16-.49,1.64,1.64,0,0,1-.49-1.17A1.58,1.58,0,0,1,30.89,18.32Z"/>
    </g>
    <path class="cls-3" d="M11.34,21a6.17,6.17,0,1,1-6.17,6.17A6.18,6.18,0,0,1,11.34,21m0-2.5A8.67,8.67,0,1,0,20,27.15a8.67,8.67,0,0,0-8.67-8.67Z"/>
    <rect class="cls-4" x="7.84" y="26.4" width="7" height="1.5"/>
  </g>
</svg>
