<svg id="Layer_1" data-name="Layer 1" xmlns="http://www.w3.org/2000/svg" width="24" height="24" viewBox="0 0 24 24">
  <defs>
    <style>
      .cls-1 {
        fill: #494949;
        fill-rule: evenodd;
      }
    </style>
  </defs>
  <title>02 Overall Transactions</title>
  <g>
    <path class="cls-1" d="M9.71,11.07h0L7.9,9.27h5.36a.93.93,0,0,0,0-1.86H7.89L9.7,5.59A.93.93,0,1,0,8.4,4.27L5,7.63H5l0,0,0,0v0l0,0h0a.44.44,0,0,0-.06.11L4.8,8V8l0,.09h0l0,.08V8.5l0,.07v0l0,.07v0l0,.07a.26.26,0,0,0,.06.1v0l0,0H5L5,9,8.39,12.4a.94.94,0,0,0,1.33-1.33Z"/>
    <path class="cls-1" d="M19.28,15.59V15.5l0-.09h0l0-.12,0-.07a.34.34,0,0,0-.06-.11v0l0,0L19,15l0,0h0L15.6,11.6a.93.93,0,0,0-1.31,1.32l1.82,1.82H10.74a.93.93,0,0,0,0,1.86h5.36l-1.82,1.82a.94.94,0,0,0,1.33,1.32L19,16.32l0,0h0v0a.44.44,0,0,0,.06-.11l0,0v0a.59.59,0,0,0,0-.12h0l0-.08v-.24Z"/>
  </g>
</svg>
